<?xml version="1.0" encoding="utf-8"?>
<!-- Generator: Adobe Illustrator 23.0.3, SVG Export Plug-In . SVG Version: 6.00 Build 0)  -->
<svg version="1.1" id="Layer_1" xmlns="http://www.w3.org/2000/svg" xmlns:xlink="http://www.w3.org/1999/xlink" x="0px" y="0px"
	 width="660px" height="495px" viewBox="0 0 660 495" style="enable-background:new 0 0 660 495;" xml:space="preserve">
<style type="text/css">
	.st0{fill:#EEEEEE;}
	.st1{fill:#666766;}
	.st2{fill:#CCCCCB;}
</style>
<rect class="st0" width="660" height="495"/>
<g>
	<path class="st1" d="M340.2,222c0,0.4-0.3,0.5-0.5,0.7c-14.2,14.2-28.3,28.3-42.5,42.5c-0.2,0.2-0.4,0.5-0.7,0.5
		c-0.3,0-0.5-0.3-0.6-0.5c-0.1-0.9-0.5-1.8-0.9-2.6c-0.5-1.3-0.4-2.8-1-4.1c-0.2-0.4-0.2-0.9-0.2-1.4c0-1.2-0.1-2.4-0.1-3.5
		c0-1.8-0.2-3.6,0.2-5.4c0.3-1.5,0.5-3,1-4.5c0.5-1.4,1-2.9,1.5-4.4c0.2-0.6,0.6-1.1,0.8-1.7c0.8-1.7,2-3.2,2.9-4.7
		c0.1-0.1,0,0,0-0.1s0.1-0.2,0.1-0.2c0.8-0.6,1.5-1.5,2.1-2.4c0.6-0.8,1.3-1.5,2.1-2.1c0.9-0.5,1.7-1.1,2.3-1.9
		c0.5-0.7,1.2-1,1.9-1.4c0.4-0.1,0.8-0.3,1.1-0.6c0.9-0.6,2-1,2.9-1.6c1.2-0.7,2.6-1.2,3.9-1.6c1.2-0.4,2.3-1,3.6-0.9
		c0.4,0,0.9-0.1,1.2-0.3c0.6-0.3,1.3-0.4,2-0.4c2.6,0,5.2,0,7.8,0c0.7,0,1.4,0.1,2,0.4c0.4,0.2,0.8,0.3,1.2,0.3
		c0.7,0,1.3,0.1,1.9,0.5c0.2,0.2,0.5,0.2,0.8,0.2c1,0,1.7,0.7,2.7,0.9C340.1,221.6,340.2,221.8,340.2,222z"/>
	<path class="st1" d="M361,256.9c-0.3,1.8-0.6,3.5-1.1,5.2c-0.3,0.8-0.5,1.6-0.8,2.4c-0.6,1.8-1.5,3.5-2.5,5.2
		c-1.3,2.4-3,4.5-4.8,6.5c-1.6,1.7-3.3,3.1-5.2,4.4c-1.6,1.1-3.3,2.1-5.1,3c-1.4,0.6-2.8,1.2-4.3,1.6c-1.7,0.4-3.3,0.8-5,1.1
		c-0.5,0.1-1,0.1-1.4,0.1c-0.2,0-0.5,0-0.6-0.2s0.2-0.3,0.3-0.4c6.1-6.2,12.3-12.3,18.4-18.4c3.7-3.7,7.4-7.4,11.2-11.1
		c0.2-0.2,0.3-0.6,0.6-0.4c0.3,0.1,0.2,0.5,0.2,0.7C361,256.6,361,256.8,361,256.9z"/>
	<g>
		<path class="st1" d="M239.4,209.4L239.4,209.4L239.4,209.4z"/>
		<path class="st1" d="M240,207.2L240,207.2L240,207.2z"/>
		<path class="st1" d="M244.5,306.9L244.5,306.9L244.5,306.9z"/>
		<path class="st1" d="M241.3,204L241.3,204L241.3,204z"/>
		<path class="st1" d="M240,298.7L240,298.7L240,298.7z"/>
		<path class="st1" d="M241.3,301.9L241.3,301.9L241.3,301.9z"/>
		<path class="st1" d="M255.3,191.2L255.3,191.2L255.3,191.2z"/>
		<path class="st1" d="M371.4,189.8c-2.2,0-4.4,0-6.6,0c-0.9,0-1.6-0.3-2.3-1c-3-3-6-6-9-9.1c-0.5-0.5-1-0.7-1.7-0.7
			c-16.2,0-32.5,0-48.7,0c-0.6,0-1.1,0.2-1.5,0.7c-3,3.1-6.1,6.1-9.1,9.1c-0.6,0.6-1.3,1-2.3,1c-8.9,0-17.8,0-26.7,0
			c-1.1,0-2.2,0-3.3,0.1h-0.1c-0.9,0.2-1.8,0.6-2.8,0.6l0,0c-0.7,0.1-1.2,0.6-1.9,0.6c-1,0.4-2,0.9-3.1,1.3
			c-0.4,0.2-0.6,0.6-1.1,0.6c-0.6,0.6-1.4,0.9-2.1,1.4c-0.1,0.2-0.3,0.3-0.4,0.4c-1.6,1.2-2.9,2.6-4.2,4.1c-0.9,1.1-1.5,2.4-2.4,3.5
			c-0.1,0.5-0.4,0.9-0.6,1.3c-0.1,0.6-0.4,1-0.7,1.4l0,0c0,0.7-0.4,1.2-0.6,1.8c-0.1,0.8-0.3,1.5-0.6,2.3c-0.2,0.7,0,1.4-0.2,2.1
			c-0.3,1-0.4,2.1-0.4,3.2c0,25.2,0,50.4,0,75.5c0,2.1,0.5,4.1,0.6,6.1l0,0c0.2,0.8,0.6,1.4,0.6,2.3c0.2,0.6,0.6,1.1,0.6,1.8l0,0
			c0.2,0.5,0.6,0.9,0.7,1.4c0.2,0.5,0.5,1,0.8,1.5c0.7,1.2,1.5,2.4,2.4,3.5c0.6,0.7,1.3,1.4,2,2.1c0.8,0.8,1.7,1.5,2.5,2.3
			c0.1,0.1,0.1,0.1,0.2,0.2c0.4,0,0.6,0.5,1,0.6c0.3,0,0.5-0.2,0.6-0.4c11.8-11.8,23.6-23.6,35.5-35.5c0.2-0.2,0.5-0.3,0.4-0.6
			c-0.4-0.6-0.6-1.3-1-1.9c-0.7-1.3-1.3-2.6-1.8-4c-0.3-0.7-0.6-1.5-0.8-2.3c-0.2-1.1-0.6-2.2-0.9-3.3c-0.5-1.4-0.5-2.8-0.9-4.2
			c-0.5-1.7-0.2-3.6-0.3-5.4c-0.2-2.5,0.2-5,0.1-7.6c0-0.5,0.2-0.9,0.3-1.4c0.4-1.5,0.5-3.1,1-4.6c0.1-0.3,0-0.6,0.2-0.9
			c0.5-0.9,0.6-2,1-3c0.5-1.3,0.9-2.5,1.5-3.8c0.3-0.5,0.4-1.2,0.9-1.6c0.1-0.1,0.1-0.1,0.1-0.2c0.1-0.2,0.1-0.5,0.2-0.8
			c1-1.5,1.9-3.1,2.9-4.6c2.1-3.1,4.7-5.8,7.5-8.3c2.2-2,4.7-3.7,7.3-5.2c0.6-0.3,1.1-0.8,1.8-0.9c0.5-0.3,1.1-0.4,1.6-0.8
			c1.2-0.9,2.6-1.2,3.9-1.7c0.9-0.4,1.9-0.6,2.8-0.9c1.1-0.4,2.3-0.6,3.5-0.9c0.9-0.3,1.9-0.3,2.9-0.6c1.8-0.4,3.6-0.2,5.4-0.3
			c2.5-0.2,5,0.2,7.6,0.2c0.6,0,1.2,0.1,1.7,0.4c0.3,0.2,0.7,0.3,1.1,0.3c1.4-0.1,2.5,0.6,3.8,0.9c1.6,0.4,3.2,1,4.7,1.6
			c1.8,0.7,3.5,1.7,5.2,2.5c0.4,0,0.5-0.3,0.7-0.5c7-7,14.1-14.1,21.1-21.1c0.2-0.2,0.5-0.3,0.4-0.6
			C372.1,189.7,371.7,189.8,371.4,189.8z M272.1,222.2c0,0.8-0.2,1-1,1c-4.8,0-9.5,0-14.3,0c-0.7,0-0.9-0.2-0.9-0.9
			c0-2.4,0-4.9,0-7.3c0-2.4,0-4.9,0-7.3c0-0.7,0.2-0.9,0.9-0.9c4.8,0,9.6,0,14.3,0c0.7,0,0.9,0.2,0.9,0.9
			C272,212.5,272,217.3,272.1,222.2z"/>
		<path class="st1" d="M241.9,202.7L241.9,202.7L241.9,202.7z"/>
		<path class="st1" d="M252.2,192.5L252.2,192.5L252.2,192.5z"/>
	</g>
	<path class="st1" d="M371.5,268.6c0.7-1.3,0.9-2.8,1.4-4.2c0.4-1.4,0.3-2.9,1-4.2c0.2-0.4,0.2-0.9,0.2-1.3c0.2-4,0.2-7.9,0-11.9
		c0-0.6-0.1-1.1-0.4-1.7c-0.5-1-0.3-1.9,0.5-2.7c12.7-12.7,25.4-25.4,38.1-38.1c0.2-0.2,0.3-0.4,0.5-0.5c0.3-0.2,0.7-0.2,0.8,0.2
		c0.4,1.4,1.3,2.7,1.4,4.2c0.1,0.6,0.6,1,0.6,1.6c0,1.2,0.1,2.3,0.4,3.4c0.1,0.4,0.1,0.9,0.1,1.3c0,15.5,0,31.1,0,46.6
		c0,9.3,0,18.7,0,28c0,2.4-0.4,4.6-0.6,6.9c-0.1,1-0.5,2.1-0.9,3.1c-0.3,0.8-0.7,1.6-1,2.4c-0.3,0.9-0.9,1.7-1.4,2.5
		c-1.2,1.9-2.7,3.6-4.4,5.2c-1.1,1-2.3,1.9-3.6,2.8c-0.9,0.6-2,1.1-2.9,1.6c-0.6,0.4-1.4,0.8-2.2,0.8c-0.7,0-1.1,0.6-1.8,0.6
		c-1,0-1.8,0.5-2.8,0.6c-0.3,0-0.5,0-0.8,0c-11,0-22,0-32.9,0c-19.7,0-39.3,0-59,0c-0.1,0-0.2,0-0.3,0c-0.2,0-0.4,0.1-0.5-0.2
		c-0.1-0.2,0.2-0.3,0.3-0.5c0.1-0.1,0.2-0.2,0.2-0.2c5.1-5.1,10.3-10.3,15.4-15.4c0.3-0.3,0.6-0.5,0.9-0.8c1.1-0.2,2,0.4,3.1,0.5
		c3,0.2,6,0.5,9.1,0.2c1.3-0.1,2.6,0.2,3.8-0.2c1.5-0.5,3-0.5,4.5-0.9c1.1-0.3,2.2-0.7,3.4-0.9c0.8-0.1,1.5-0.5,2.2-0.8
		c1-0.4,2-0.8,2.9-1.2c1.3-0.6,2.6-1.4,3.9-2.1c1.9-1.1,3.7-2.3,5.5-3.7c2.5-2,4.8-4.1,6.8-6.6c1.2-1.5,2.4-3,3.4-4.6
		c0.9-1.3,1.6-2.7,2.4-4.1c0.6-1.1,1.1-2.2,1.6-3.3C370.9,270.4,371.5,269.6,371.5,268.6z"/>
</g>
<path class="st2" d="M330,77c-94.2,0-170.5,76.3-170.5,170.5S235.8,418,330,418s170.5-76.3,170.5-170.5S424.2,77,330,77z
	 M191.2,247.5c0-76.6,62.1-138.8,138.8-138.8c34.4,0,65.8,12.5,90,33.2L224.4,337.5C203.7,313.3,191.2,281.9,191.2,247.5z
	 M330,386.3c-34.4,0-65.8-12.5-90-33.2l195.6-195.6c20.7,24.2,33.2,55.7,33.2,90C468.8,324.1,406.6,386.3,330,386.3z"/>
</svg>
